<?xml version="1.0" standalone="no"?>
<!DOCTYPE svg PUBLIC "-//W3C//DTD SVG 20010904//EN"
 "http://www.w3.org/TR/2001/REC-SVG-20010904/DTD/svg10.dtd">
<svg version="1.0" xmlns="http://www.w3.org/2000/svg"
 width="1024.000000pt" height="1024.000000pt" viewBox="0 0 1024.000000 1024.000000"
 preserveAspectRatio="xMidYMid meet">
<metadata>
Created by potrace 1.16, written by Peter Selinger 2001-2019
</metadata>
<g transform="translate(0.000000,1024.000000) scale(0.100000,-0.100000)"
fill="#000000" stroke="none">
<path d="M5432 9201 c-29 -10 -68 -33 -87 -51 -57 -55 -72 -106 -80 -270 -4
-80 -8 -146 -9 -146 0 -1 -77 -4 -171 -8 -560 -21 -1041 -133 -1480 -346 -127
-62 -363 -203 -455 -273 -260 -198 -459 -387 -622 -592 -332 -419 -541 -860
-642 -1360 -48 -238 -60 -364 -60 -630 0 -333 21 -508 99 -810 60 -233 136
-431 253 -659 87 -169 266 -458 334 -538 22 -26 25 -27 45 -13 51 36 141 204
199 373 l19 52 142 0 c143 0 143 0 143 -23 0 -32 -75 -321 -100 -385 -33 -86
-96 -205 -134 -255 -20 -26 -36 -51 -36 -56 0 -19 179 -166 320 -263 509 -347
1093 -557 1695 -608 157 -13 490 -13 635 1 312 29 729 136 1033 265 654 278
1153 717 1497 1319 300 521 470 1210 431 1742 -79 1063 -583 1953 -1416 2495
-363 237 -750 405 -1145 498 l-95 23 0 171 c0 189 -5 211 -65 280 -66 74 -158
99 -248 67z m115 -161 c22 -13 34 -29 38 -52 3 -18 5 -325 3 -683 l-3 -650
-27 -3 c-23 -3 -27 -7 -23 -30 2 -15 9 -57 15 -94 13 -86 39 -146 85 -196 44
-50 83 -68 188 -91 45 -10 81 -22 80 -27 -1 -5 -28 -12 -60 -16 -124 -16 -204
-63 -242 -141 -21 -43 -21 -50 -21 -1021 0 -538 -3 -976 -7 -974 -5 2 -39 18
-76 36 l-68 33 1 947 c0 521 1 955 0 965 0 29 -77 103 -132 127 -29 12 -82 24
-124 27 -100 8 -98 27 4 42 196 28 289 131 308 342 l7 67 -30 6 -30 7 -6 157
c-11 257 -8 1132 4 1174 6 24 20 43 37 53 35 19 41 18 79 -5z m-812 -597 c9
-73 37 -139 78 -181 31 -32 107 -62 200 -77 20 -3 37 -10 37 -15 0 -10 -19
-16 -92 -25 -25 -3 -70 -18 -100 -33 -45 -23 -57 -36 -81 -83 -16 -31 -34 -87
-40 -123 -6 -36 -14 -66 -18 -66 -4 0 -10 26 -14 58 -19 158 -121 252 -272
252 -32 0 -43 4 -43 15 0 8 2 15 5 15 32 0 168 36 197 53 62 34 100 106 114
215 4 28 10 52 14 52 4 0 11 -26 15 -57z m1226 -33 c6 0 21 -12 34 -26 40 -43
30 -95 -22 -122 -78 -42 -157 45 -107 116 18 26 52 43 72 36 8 -2 18 -4 23 -4z
m457 -252 c17 -41 81 -107 125 -129 21 -11 70 -28 108 -38 l70 -18 -69 -12
c-165 -29 -240 -106 -267 -271 l-8 -45 -26 82 c-51 155 -117 206 -316 239
l-40 7 70 14 c185 39 267 125 301 318 7 39 7 39 24 -40 9 -44 22 -92 28 -107z
m-2334 138 c92 -39 102 -166 16 -211 -112 -58 -224 79 -143 175 41 50 73 59
127 36z m-357 -246 c17 -10 37 -29 44 -42 15 -27 15 13 12 -1610 l-3 -1188
-115 0 -115 0 2 1396 3 1396 37 34 c44 40 86 44 135 14z m1382 -186 c63 -53
26 -144 -58 -144 -32 0 -44 6 -65 31 -29 34 -32 53 -12 88 30 53 89 64 135 25z
m-727 -86 c140 -162 237 -312 308 -475 140 -319 131 -656 -24 -902 -79 -125
-262 -276 -413 -340 -128 -54 -204 -69 -158 -31 19 16 122 160 168 236 46 77
89 176 123 290 25 80 28 104 28 249 1 174 -9 217 -51 223 -37 5 -51 -34 -77
-215 -35 -244 -82 -367 -219 -580 l-61 -97 -13 45 c-42 144 -48 215 -47 579 0
331 1 360 21 432 33 116 98 265 167 381 63 106 176 266 188 267 3 0 31 -28 60
-62z m2778 -18 c114 -28 199 -77 292 -170 59 -59 86 -96 114 -153 112 -236 62
-529 -119 -694 -119 -109 -228 -153 -397 -160 -224 -10 -379 59 -513 225 -92
116 -131 223 -131 367 -1 124 27 216 94 319 153 232 394 329 660 266z m-4114
-68 c-26 -72 -38 -193 -27 -264 24 -146 67 -242 182 -405 80 -113 140 -230
166 -323 34 -123 16 -408 -31 -498 -13 -24 -15 -21 -71 84 -158 297 -236 460
-272 571 -32 99 -41 118 -60 121 -38 6 -58 -40 -57 -128 2 -106 44 -225 162
-450 121 -233 184 -361 179 -366 -7 -8 -118 36 -199 78 -274 142 -428 349
-469 630 -41 284 78 605 315 841 70 70 185 161 194 153 1 -2 -4 -22 -12 -44z
m3129 -919 c17 -299 96 -410 316 -447 38 -6 71 -16 72 -21 1 -6 -20 -13 -48
-16 -243 -31 -319 -131 -341 -446 -4 -71 -10 -103 -19 -103 -8 0 -14 36 -18
123 -13 272 -100 388 -314 419 -48 7 -83 17 -83 23 0 6 34 17 78 23 142 22
239 93 281 207 20 53 41 212 41 309 0 52 6 70 20 61 4 -3 11 -62 15 -132z
m-1029 -58 c11 -8 27 -28 34 -45 17 -42 4 -78 -37 -103 -28 -16 -38 -17 -68
-7 -61 20 -85 87 -49 138 29 42 71 48 120 17z m2559 -268 c485 -358 498 -1088
24 -1324 -46 -23 -95 -45 -108 -49 l-24 -6 6 93 c6 116 29 182 107 314 105
178 134 280 91 319 -29 26 -53 16 -80 -34 -13 -25 -62 -108 -109 -185 -116
-189 -151 -281 -152 -399 l-1 -41 -25 30 c-63 75 -104 200 -104 316 0 130 33
209 162 391 92 130 133 216 154 317 14 71 15 95 4 160 -7 42 -18 91 -26 110
-27 64 -19 63 81 -12z m-390 -41 c36 -15 75 -67 75 -99 0 -33 -29 -82 -59
-100 -77 -45 -170 2 -171 86 0 48 23 92 58 111 34 19 54 20 97 2z m-514 -177
c220 -148 356 -448 308 -681 -40 -191 -192 -348 -380 -393 -111 -26 -109 -27
-109 58 0 94 25 148 115 247 96 106 128 186 89 224 -26 26 -52 19 -78 -22 -13
-21 -47 -58 -75 -81 -115 -96 -201 -257 -188 -352 5 -40 5 -40 -14 -23 -29 26
-77 131 -89 194 -22 114 18 243 110 355 96 117 157 205 179 254 27 63 51 169
51 229 0 48 -5 49 81 -9z m-4299 -43 c8 -83 46 -165 95 -205 34 -28 122 -58
188 -63 51 -5 29 -22 -44 -34 -93 -16 -157 -47 -186 -93 -26 -42 -51 -115 -60
-183 -3 -27 -10 -48 -14 -48 -5 0 -11 34 -15 77 -13 156 -69 223 -206 244
-101 16 -109 18 -90 28 8 5 37 11 64 15 76 10 150 48 180 93 30 45 56 139 56
201 0 71 24 47 32 -32z m2541 -129 c165 -74 266 -261 238 -437 -54 -336 -459
-473 -706 -239 -163 154 -171 407 -19 570 62 66 94 88 168 116 53 20 75 23
161 20 81 -3 111 -9 158 -30z m-1982 -254 c16 -262 93 -358 312 -388 50 -7 62
-22 25 -29 -172 -34 -224 -61 -274 -143 -37 -62 -55 -138 -63 -262 -8 -127
-27 -132 -36 -9 -7 92 -23 180 -43 228 -40 100 -142 165 -274 176 -76 7 -100
19 -55 28 12 3 58 12 101 20 48 9 98 27 125 44 91 55 141 177 141 341 0 86 6
114 24 108 7 -2 14 -46 17 -114z m-817 -264 c30 -35 32 -58 11 -98 -16 -33
-33 -41 -81 -41 -47 0 -84 37 -84 83 0 82 101 119 154 56z m3645 -47 c40 -21
71 -73 71 -118 0 -64 -75 -134 -145 -134 -75 0 -140 71 -131 143 12 102 116
157 205 109z m-1551 -168 c27 -54 51 -72 124 -100 35 -12 54 -23 43 -24 -101
-2 -169 -66 -203 -190 l-9 -35 -8 40 c-20 100 -73 158 -165 177 -56 11 -65 27
-16 28 11 0 40 10 64 21 57 28 96 88 113 175 l13 65 12 -59 c7 -33 21 -77 32
-98z m1749 -224 c141 -63 91 -265 -64 -262 -75 1 -143 64 -143 131 0 38 27 88
61 114 55 41 87 44 146 17z m-3758 -36 c40 -51 18 -114 -46 -130 -57 -15 -113
47 -93 103 15 38 37 53 81 53 29 0 42 -6 58 -26z m305 -49 c19 -165 96 -249
261 -286 49 -11 55 -14 30 -17 -58 -7 -150 -34 -183 -54 -44 -27 -76 -79 -103
-169 l-22 -74 -12 50 c-25 108 -66 169 -135 205 -38 19 -123 39 -173 41 l-32
1 35 10 c19 5 66 19 103 29 116 34 171 103 199 253 7 36 15 66 19 66 3 0 9
-25 13 -55z m1231 31 c57 -24 74 -90 33 -133 -21 -23 -25 -23 -227 -23 -196 0
-206 1 -228 22 -40 37 -28 104 25 132 38 21 347 22 397 2z m1445 -27 c85 -23
191 -73 262 -125 43 -32 142 -133 136 -139 -7 -6 -135 18 -153 29 -50 30 -229
13 -375 -36 -145 -48 -290 -160 -373 -288 -20 -30 -43 -63 -51 -72 -8 -9 -12
-19 -9 -22 3 -2 -2 -18 -10 -35 -9 -17 -18 -44 -22 -61 -4 -16 -11 -33 -17
-37 -7 -4 -9 0 -5 10 5 13 1 17 -18 17 -18 0 -23 -4 -19 -15 4 -8 1 -15 -5
-15 -6 0 -11 4 -11 9 0 20 -26 18 -28 -2 -1 -17 1 -19 8 -7 9 14 11 13 14 -9
2 -15 16 -26 16 -13 0 7 12 12 27 12 l27 0 -22 -20 c-24 -22 -27 -35 -13 -45
5 -3 12 3 14 12 4 14 5 13 6 -4 0 -13 -3 -23 -8 -23 -11 0 -81 85 -81 99 0 6
-6 11 -13 11 -29 0 -77 141 -77 227 0 155 99 341 238 443 160 119 356 153 562
99z m1985 -24 c184 -47 328 -162 409 -326 61 -126 81 -226 73 -374 -19 -351
-242 -674 -570 -825 -150 -68 -301 -110 -401 -110 l-43 0 -7 168 c-4 92 -9
188 -12 213 -6 44 -4 47 47 104 30 32 115 106 190 166 213 169 285 255 329
393 28 84 26 235 -3 279 -27 42 -53 51 -77 27 -16 -16 -20 -33 -20 -93 0 -179
-76 -301 -297 -480 -65 -52 -138 -116 -163 -141 -45 -46 -60 -55 -60 -35 0 7
-20 54 -44 105 -47 98 -122 217 -188 296 -38 46 -39 49 -28 85 19 58 86 181
141 254 145 196 353 307 579 308 47 1 113 -6 145 -14z m-908 -171 c34 -22 56
-71 49 -112 -15 -94 -135 -131 -201 -62 -95 99 36 250 152 174z m-2544 -54
c15 0 17 -11 17 -85 l0 -85 98 0 c86 0 105 -3 151 -26 55 -28 97 -79 108 -134
l6 -30 -562 0 -561 0 6 28 c15 61 52 110 107 139 23 13 63 18 150 21 l117 4 0
82 c0 46 3 86 7 90 4 4 82 5 173 2 91 -3 173 -6 183 -6z m1922 -128 c209 -58
383 -160 525 -308 223 -232 326 -501 322 -839 -2 -222 -42 -405 -127 -580 -42
-87 -138 -235 -153 -235 -4 0 -6 68 -4 152 7 297 -66 552 -222 787 -81 122
-170 214 -341 353 -218 176 -256 231 -257 363 0 41 2 77 5 82 11 19 -13 53
-37 53 -58 0 -102 -104 -94 -219 10 -130 86 -234 288 -396 139 -112 195 -166
270 -265 144 -189 230 -452 230 -703 l0 -100 -73 70 c-41 38 -94 83 -118 100
-74 51 -227 129 -359 183 -305 125 -479 254 -623 461 -55 79 -70 109 -103 201
-51 142 -64 272 -39 392 48 225 232 409 460 460 99 22 353 15 450 -12z m-1294
-424 c17 -35 42 -77 55 -95 13 -17 24 -34 24 -36 0 -3 -443 -5 -984 -6 -877
-2 -988 0 -1015 14 -71 36 -70 122 2 165 31 19 59 20 959 20 l928 0 31 -62z
m-1005 -370 c-19 -236 -55 -456 -101 -610 l-16 -58 -200 0 c-109 0 -199 2
-199 5 0 3 24 49 54 102 69 124 106 236 153 463 l38 180 139 0 138 0 -6 -82z
m404 65 c0 -10 5 -76 10 -148 5 -71 14 -200 20 -285 5 -85 13 -188 16 -227 l6
-73 -205 0 -205 0 10 42 c23 106 67 544 68 686 0 22 2 22 140 22 127 0 140 -2
140 -17z m459 -209 c29 -124 75 -292 102 -373 27 -80 49 -147 49 -148 0 -2
-87 -3 -194 -3 l-194 0 -21 113 c-31 169 -61 399 -68 525 l-6 112 139 0 140 0
53 -226z m406 114 c66 -202 145 -351 243 -459 l46 -52 -29 -23 c-17 -13 -61
-41 -100 -61 -65 -35 -76 -37 -159 -38 l-89 0 -38 94 c-67 164 -137 384 -179
559 -11 46 -20 85 -20 88 0 2 65 4 144 4 l143 0 38 -112z m2396 -550 c-111
-105 -273 -200 -400 -233 -30 -8 -56 -13 -57 -12 -2 1 5 20 15 42 10 22 26 70
36 108 l18 67 57 0 c84 0 218 26 307 59 43 16 80 30 83 30 3 0 -24 -27 -59
-61z m-1998 -145 c4 -37 18 -82 39 -122 41 -80 97 -115 211 -133 44 -7 77 -17
77 -24 0 -6 -32 -16 -73 -23 -153 -25 -211 -74 -243 -206 -9 -38 -19 -76 -20
-83 -7 -26 -21 -1 -28 48 -20 154 -100 227 -268 245 -38 3 -68 10 -68 14 0 4
33 13 73 20 172 30 247 104 264 261 8 79 28 80 36 3z m-808 -239 c35 -23 48
-68 31 -109 -17 -39 -42 -55 -86 -55 -43 0 -65 14 -80 49 -35 87 57 166 135
115z"/>
<path d="M4757 5975 c-131 -48 -229 -200 -212 -329 23 -171 182 -300 347 -282
32 4 79 16 103 26 60 26 131 93 163 155 23 43 27 62 27 140 0 86 -2 94 -35
149 -39 65 -102 117 -169 141 -55 19 -173 18 -224 0z m288 -230 c30 -29 32
-68 5 -95 -20 -20 -65 -26 -86 -12 -38 25 -39 91 -1 117 31 21 54 19 82 -10z"/>
<path d="M2129 2095 c-130 -35 -227 -117 -286 -240 -31 -66 -37 -89 -41 -170
-4 -76 -1 -106 17 -163 65 -216 279 -349 506 -314 100 16 168 49 246 121 l64
59 -30 23 c-16 13 -53 45 -80 70 l-50 47 -41 -38 c-40 -37 -119 -70 -169 -70
-50 0 -121 31 -157 67 -91 94 -101 224 -26 323 76 99 236 113 340 30 l39 -32
43 39 c23 21 60 53 81 72 l40 33 -35 30 c-105 90 -206 129 -334 127 -44 0
-102 -7 -127 -14z"/>
<path d="M7510 2096 c-111 -24 -197 -85 -265 -185 -156 -233 -72 -545 179
-662 131 -61 286 -61 412 1 68 33 170 133 204 200 87 170 57 376 -75 518 -109
118 -283 166 -455 128z m220 -226 c38 -19 76 -57 106 -104 27 -43 26 -158 -3
-211 -46 -87 -110 -126 -209 -128 -183 -3 -293 212 -187 366 67 97 191 129
293 77z"/>
<path d="M2830 1656 l0 -436 23 -5 c12 -3 155 -4 317 -3 l295 3 3 103 3 102
-206 0 -205 0 -2 333 -3 332 -112 3 -113 3 0 -435z"/>
<path d="M3702 1653 l3 -438 353 -3 352 -2 0 105 0 105 -240 0 -240 0 0 70 0
70 200 0 200 0 0 95 0 95 -200 0 -200 0 0 65 0 65 240 0 240 0 0 105 0 105
-355 0 -355 0 2 -437z"/>
<path d="M5005 2061 c-8 -16 -66 -146 -129 -288 -107 -242 -224 -496 -246
-535 -6 -10 -10 -20 -10 -23 0 -3 54 -5 120 -5 l119 0 21 48 c11 26 26 59 33
74 l12 27 187 3 c104 2 193 2 198 0 6 -2 10 -9 10 -17 0 -7 11 -37 24 -68 l25
-55 63 -7 c35 -4 89 -5 120 -3 l58 3 -71 150 c-60 127 -157 345 -290 655 l-28
65 -100 3 -100 3 -16 -30z m167 -387 c26 -60 48 -112 48 -116 0 -5 -48 -8
-106 -8 -97 0 -106 2 -101 18 20 65 93 222 101 219 6 -2 32 -53 58 -113z"/>
<path d="M5887 2083 c-4 -3 -7 -201 -7 -440 l0 -433 110 0 110 0 0 220 c0 121
2 220 5 220 6 0 51 -48 222 -235 128 -141 175 -179 245 -200 113 -33 264 -7
355 62 56 43 74 63 110 122 26 42 26 45 9 55 -10 6 -41 26 -68 44 l-50 34 -40
-40 c-75 -76 -181 -103 -245 -63 l-33 21 0 224 c0 252 -5 236 79 236 69 0 135
-26 189 -75 l47 -43 65 36 c36 19 67 37 69 38 8 7 -63 105 -97 135 -20 18 -61
44 -92 58 -53 25 -63 26 -262 29 l-208 4 -1 -124 c-1 -67 -4 -163 -8 -212 l-6
-88 -101 113 c-55 63 -133 152 -173 199 -40 47 -80 91 -89 98 -16 12 -124 17
-135 5z"/>
</g>
</svg>
